# xmcd CD database file
#
# Track frame offsets:
#	150
#	18427
#	41987
#	62592
#
# Disc length: 1091 seconds
#
# Revision: 3
# Processed by: cddbd v1.4PL0 Copyright (c) Steve Scherf et al.
# Submitted via: CDex 1.50beta10
#
DISCID=2f044104
DTITLE=Tony Toni Tone - If I Had No Loot
DYEAR=1990
DGENRE=R&B
TTITLE0=If I Had No Loot (Radio Edit)
TTITLE1=If I Had No Loot (Extended Version)
TTITLE2=Feels Good (Edit)
TTITLE3=The Blues (The Mix)
EXTD=YEAR: 1990
EXTT0=
EXTT1=
EXTT2=
EXTT3=
PLAYORDER=
